{"title":"Freelancers 2012 DVDRiP XviD - ILLUMINATI","uid":7526090,"size":1486441396,"categoryP":"video","categoryS":"movies","magnet":"?xt=urn:btih:ea2873e6f1ff93fecd74fff9f8fe01f2398aa23c&amp;dn=Freelancers+2012+DVDRiP+XviD+-+ILLUMINATI&amp;tr=udp%3A%2F%2Ftracker.openbittorrent.com%3A80&amp;tr=udp%3A%2F%2Fopen.demonii.com%3A1337&amp;tr=udp%3A%2F%2Ftracker.coppersurfer.tk%3A6969&amp;tr=udp%3A%2F%2Fexodus.desync.com%3A6969","seeders":1,"leechers":0,"uploader":"HeroMaster","files":-1,"time":1344794550,"description":"Freelancers 2012 DVDRiP XviD - ILLUMINATI\n\nIMDB: http://www.imdb.com/title/tt1815708/\n\nVideo\nID                                       : 0\nFormat                                   : MPEG-4 Visual\nFormat profile                           : Advanced Simple@L5\nFormat settings, BVOP                    : 2\nFormat settings, QPel                    : No\nFormat settings, GMC                     : No warppoints\nFormat settings, Matrix                  : Default (H.263)\nMuxing mode                              : Packed bitstream\nCodec ID                                 : XVID\nCodec ID/Hint                            : XviD\nDuration                                 : 1h 36mn\nBit rate                                 : 1 573 Kbps\nWidth                                    : 720 pixels\nHeight                                   : 304 pixels\nDisplay aspect ratio                     : 2.35:1\nFrame rate                               : 23.976 fps\nColor space                              : YUV\nChroma subsampling                       : 4:2:0\nBit depth                                : 8 bits\nScan type                                : Progressive\nCompression mode                         : Lossy\nBits/(Pixel*Frame)                       : 0.300\nStream size                              : 1.06 GiB (77%)\nWriting library                          : XviD 64\n\nAudio\nID                                       : 1\nFormat                                   : AC-3\nFormat/Info                              : Audio Coding 3\nMode extension                           : CM (complete main)\nFormat settings, Endianness              : Big\nCodec ID                                 : 2000\nDuration                                 : 1h 36mn\nBit rate mode                            : Constant\nBit rate                                 : 448 Kbps\nChannel(s)                               : 6 channels\nChannel positions                        : Front: L C R, Side: L R, LFE\nSampling rate                            : 48.0 KHz\nBit depth                                : 16 bits\nCompression mode                         : Lossy\nStream size                              : 309 MiB (22%)\nAlignment                                : Aligned on interleaves\nInterleave, duration                     : 42 ms (1.00 video frame)\n\n\nSource: Retail R1 DVD\n\n\nPoster:\n\n &lt;a href=&quot;\nhttp://i.imgur.com/ds964.jpg&quot; rel=&quot;nofollow&quot; target=&quot;_NEW&quot;&gt;\nhttp://i.imgur.com/ds964.jpg&lt;/a&gt;\n\n\nScreenshots:\n\n &lt;a href=&quot;\nhttp://i.imgur.com/6NxKl.png&quot; rel=&quot;nofollow&quot; target=&quot;_NEW&quot;&gt;\nhttp://i.imgur.com/6NxKl.png&lt;/a&gt;\n\n &lt;a href=&quot;\nhttp://i.imgur.com/qbndM.png&quot; rel=&quot;nofollow&quot; target=&quot;_NEW&quot;&gt;\nhttp://i.imgur.com/qbndM.png&lt;/a&gt;\n\n &lt;a href=&quot;\nhttp://i.imgur.com/KtEgg.png&quot; rel=&quot;nofollow&quot; target=&quot;_NEW&quot;&gt;\nhttp://i.imgur.com/KtEgg.png&lt;/a&gt;\n\n\nENJOY!","torrent":{"xt":"urn:btih:ea2873e6f1ff93fecd74fff9f8fe01f2398aa23c","amp;dn":"Freelancers+2012+DVDRiP+XviD+-+ILLUMINATI","amp;tr":["udp%3A%2F%2Ftracker.openbittorrent.com%3A80","udp%3A%2F%2Fopen.demonii.com%3A1337","udp%3A%2F%2Ftracker.coppersurfer.tk%3A6969","udp%3A%2F%2Fexodus.desync.com%3A6969"],"infoHash":"ea2873e6f1ff93fecd74fff9f8fe01f2398aa23c","infoHashBuffer":{"type":"Buffer","data":[234,40,115,230,241,255,147,254,205,116,255,249,248,254,1,242,57,138,162,60]},"announce":[],"urlList":[]}}